<?xml version="1.0" encoding="UTF-8" standalone="no"?>
<!-- Created with Inkscape (http://www.inkscape.org/) -->

<svg
   width="512"
   height="512"
   viewBox="0 0 135.46666 135.46667"
   version="1.1"
   id="svg5"
   xmlns="http://www.w3.org/2000/svg"
   xmlns:svg="http://www.w3.org/2000/svg">
  <defs
     id="defs2">
    <rect
       x="121.18841"
       y="325.31213"
       width="111.54477"
       height="62.362206"
       id="rect23458" />
    <rect
       x="183.22916"
       y="437.17834"
       width="124.40295"
       height="73.613121"
       id="rect20262" />
    <rect
       x="228.87572"
       y="14.144005"
       width="1134.092"
       height="1460.6899"
       id="rect1442" />
  </defs>
  <g
     id="layer1">
    <text
       xml:space="preserve"
       transform="scale(0.26458333)"
       id="text1440"
       style="font-style:normal;font-weight:normal;font-size:40px;line-height:1.25;font-family:sans-serif;white-space:pre;shape-inside:url(#rect1442);fill:#000000;fill-opacity:1;stroke:none" />
    <path
       id="path36337"
       style="stroke-width:0.199375"
       d="M 6.3796928,12.542259 A 6.3800514,6.3800514 0 0 0 2.7691949e-4,18.922779 V 95.482994 A 6.3800514,6.3800514 0 0 0 6.3796928,101.86296 H 66.535435 c 5.701986,12.43045 18.254015,21.06145 32.828722,21.06145 19.942743,0 36.100363,-16.1582 36.100363,-36.10093 0,-19.942755 -16.15762,-36.100921 -36.100363,-36.100921 -3.485759,0 -6.855303,0.49548 -10.043733,1.41668 v -33.21646 a 6.3800514,6.3800514 0 0 0 -6.379979,-6.38052 z m 6.3799782,12.7605 h 25.520436 v 25.51989 H 12.759671 Z m 38.280371,0 h 25.520435 v 25.51989 H 51.040042 Z m 48.765725,31.75193 c 3.623263,0 6.710673,1.32633 9.262253,3.97999 2.75573,2.95984 4.13344,6.685266 4.13344,11.176076 0,7.297565 -2.67919,14.187178 -8.03753,20.668224 L 90.849833,110.33165 h 17.146327 c 1.68406,0 2.98554,-0.48447 3.90411,-1.45408 0.86753,-0.76547 2.0414,-2.60278 3.52133,-5.51159 h 1.53106 l -3.98054,11.17608 H 84.189933 v -0.38277 l 13.31925,-16.228466 c 7.042387,-8.624394 10.767827,-16.20231 11.176077,-22.734386 0.20412,-3.215013 -0.63775,-6.200763 -2.52592,-8.956499 -2.2454,-3.41912 -5.46041,-5.12827 -9.64502,-5.12827 -2.959851,0 -5.358407,1.50531 -7.195555,4.51619 -0.612384,1.02065 -1.735421,3.725216 -3.368444,8.113963 l -1.530506,-0.229329 c 1.020639,-5.817638 3.087191,-10.130264 6.200137,-12.937024 2.60262,-2.34747 5.664608,-3.52078 9.185815,-3.52078 z m -87.046096,6.52845 H 38.280107 V 89.103027 H 12.759671 Z m 38.280371,0 h 20.69792 c -5.287484,6.279316 -8.474733,14.385896 -8.474733,23.240341 0,0.765887 0.0267,1.525526 0.07375,2.279547 H 51.040095 Z" />
  </g>
</svg>
