<?xml version="1.0" encoding="UTF-8" standalone="no"?>
<!-- Created with Inkscape (http://www.inkscape.org/) -->

<svg
   width="512"
   height="512"
   viewBox="0 0 135.46666 135.46667"
   version="1.1"
   id="svg5"
   xmlns="http://www.w3.org/2000/svg"
   xmlns:svg="http://www.w3.org/2000/svg">
  <defs
     id="defs2">
    <rect
       x="121.18841"
       y="325.31213"
       width="111.54477"
       height="62.362206"
       id="rect23458" />
    <rect
       x="183.22916"
       y="437.17834"
       width="124.40295"
       height="73.613121"
       id="rect20262" />
    <rect
       x="228.87572"
       y="14.144005"
       width="1134.092"
       height="1460.6899"
       id="rect1442" />
  </defs>
  <g
     id="layer1">
    <text
       xml:space="preserve"
       transform="scale(0.26458333)"
       id="text1440"
       style="font-style:normal;font-weight:normal;font-size:40px;line-height:1.25;font-family:sans-serif;white-space:pre;shape-inside:url(#rect1442);fill:#000000;fill-opacity:1;stroke:none" />
    <path
       id="path36346"
       style="stroke-width:0.199375"
       d="M 6.3799695,12.542277 A 6.3800514,6.3800514 0 0 0 1.7342983e-8,18.922799 V 95.482995 A 6.3800514,6.3800514 0 0 0 6.3799695,101.86297 H 66.53571 c 5.701981,12.43044 18.254017,21.06142 32.828718,21.06142 19.942742,0 36.100372,-16.15819 36.100372,-36.100905 0,-19.942751 -16.15763,-36.100923 -36.100372,-36.100923 -3.48576,0 -6.855303,0.495462 -10.043736,1.416671 V 18.922799 A 6.3800514,6.3800514 0 0 0 82.940721,12.542277 Z M 12.759942,25.302769 H 38.280374 V 50.822651 H 12.759942 Z m 38.280374,0 H 76.560748 V 50.822651 H 51.040316 Z m 49.169944,31.699124 c 4.065,0 7.1014,1.404986 9.10882,4.215365 1.40519,2.007415 2.10795,4.240959 2.10795,6.700042 0,4.76761 -2.30846,8.882491 -6.92552,12.345278 3.01113,1.7063 5.04341,3.161605 6.09731,4.366054 2.30851,2.609634 3.46304,6.273332 3.46304,10.99075 0,5.721128 -1.93222,10.312898 -5.7965,13.775698 -3.86426,3.51297 -8.732225,5.26962 -14.603914,5.26962 -1.656117,0 -3.212051,-0.25104 -4.667426,-0.75289 -2.107784,-0.75277 -3.161662,-1.73119 -3.161662,-2.93563 0,-1.70629 0.702767,-2.55947 2.107956,-2.55947 0.200743,0 0.376299,0.0252 0.526853,0.0754 2.760193,1.20445 4.215497,1.83174 4.366056,1.88193 2.208155,0.80297 4.240433,1.12892 6.097301,0.97836 3.061306,-0.20075 5.746596,-1.5051 8.055116,-3.91399 2.25835,-2.3587 3.38714,-5.19439 3.38714,-8.506619 0,-5.721131 -1.78126,-9.635844 -5.34441,-11.743637 -3.51299,-2.057594 -7.276749,-2.985682 -11.291582,-2.784947 v -0.226031 c 3.864275,-1.355006 7.075672,-3.211724 9.635132,-5.570443 2.91075,-2.659821 4.36661,-5.394873 4.36661,-8.205252 0,-2.459083 -0.92864,-4.817868 -2.7855,-7.076208 -2.0576,-2.459081 -4.4667,-3.688515 -7.226904,-3.688515 -3.111486,0 -6.498996,3.512743 -10.162527,10.538693 l -1.355077,-0.300824 c 2.308527,-8.581712 6.975781,-12.872698 14.001738,-12.872698 z m -87.450318,6.581249 h 25.520432 v 25.51989 H 12.759942 Z m 38.280374,0 h 20.697921 c -5.287492,6.279316 -8.474732,14.385896 -8.474732,23.240343 0,0.765885 0.02674,1.525527 0.0737,2.279547 H 51.040316 Z" />
  </g>
</svg>
