<?xml version="1.0" encoding="UTF-8" standalone="no"?>
<!-- Created with Inkscape (http://www.inkscape.org/) -->

<svg
   width="512"
   height="512"
   viewBox="0 0 135.46666 135.46667"
   version="1.1"
   id="svg5"
   xmlns="http://www.w3.org/2000/svg"
   xmlns:svg="http://www.w3.org/2000/svg">
  <defs
     id="defs2">
    <rect
       x="121.18841"
       y="325.31213"
       width="111.54477"
       height="62.362206"
       id="rect23458" />
    <rect
       x="183.22916"
       y="437.17834"
       width="124.40295"
       height="73.613121"
       id="rect20262" />
    <rect
       x="228.87572"
       y="14.144005"
       width="1134.092"
       height="1460.6899"
       id="rect1442" />
  </defs>
  <g
     id="layer1">
    <text
       xml:space="preserve"
       transform="scale(0.26458333)"
       id="text1440"
       style="font-style:normal;font-weight:normal;font-size:40px;line-height:1.25;font-family:sans-serif;white-space:pre;shape-inside:url(#rect1442);fill:#000000;fill-opacity:1;stroke:none" />
    <path
       id="path25100"
       style="stroke-width:0.199375"
       d="m 6.3809321,12.542272 a 6.3800514,6.3800514 0 0 0 -6.37996758927,6.38053 v 76.56019 A 6.3800514,6.3800514 0 0 0 6.3809321,101.86296 H 66.53661 c 5.701987,12.43045 18.254026,21.06143 32.82872,21.06143 19.94274,0 36.10037,-16.15819 36.10037,-36.100908 0,-19.94275 -16.15763,-36.10092 -36.10037,-36.10092 -3.48575,0 -6.8553,0.49545 -10.04373,1.41665 v -33.21641 a 6.3800514,6.3800514 0 0 0 -6.379978,-6.38053 z M 12.7609,25.302752 h 25.520383 v 25.51989 H 12.7609 Z m 38.280319,0 h 25.520434 v 25.51989 H 51.041219 Z m 50.323731,31.73488 v 50.099348 c 0,2.2061 0.61597,3.77089 1.84728,4.69437 1.23131,0.82088 3.28308,1.23134 6.15614,1.23134 v 1.53877 H 89.129115 v -1.53877 c 2.719142,-0.1026 4.591644,-0.51307 5.617742,-1.23134 1.539136,-1.0774 2.30868,-3.12972 2.30868,-6.15668 V 67.503742 c 0,-2.92438 -1.052118,-4.38643 -3.155605,-4.38643 -1.333925,0 -3.180737,0.46185 -5.540748,1.38534 v -1.23134 z m -88.60405,6.5455 h 25.520383 v 25.51988 H 12.7609 Z m 38.280319,0 h 20.697918 c -5.287484,6.27932 -8.474721,14.3859 -8.474721,23.24035 0,0.76589 0.0267,1.52552 0.07364,2.27953 H 51.041175 Z" />
  </g>
</svg>
