<?xml version="1.0" encoding="UTF-8" standalone="no"?>
<!-- Created with Inkscape (http://www.inkscape.org/) -->

<svg
   width="512"
   height="512"
   viewBox="0 0 135.46666 135.46667"
   version="1.1"
   id="svg5"
   inkscape:version="1.1 (c68e22c387, 2021-05-23)"
   sodipodi:docname="grid-icons-src.svg"
   xmlns:inkscape="http://www.inkscape.org/namespaces/inkscape"
   xmlns:sodipodi="http://sodipodi.sourceforge.net/DTD/sodipodi-0.dtd"
   xmlns="http://www.w3.org/2000/svg"
   xmlns:svg="http://www.w3.org/2000/svg">
  <sodipodi:namedview
     id="namedview7"
     pagecolor="#ffffff"
     bordercolor="#666666"
     borderopacity="1.0"
     inkscape:pageshadow="2"
     inkscape:pageopacity="0.0"
     inkscape:pagecheckerboard="0"
     inkscape:document-units="px"
     showgrid="false"
     units="px"
     width="512px"
     inkscape:snap-global="true"
     showguides="true"
     inkscape:guide-bbox="true"
     inkscape:zoom="0.5"
     inkscape:cx="-721"
     inkscape:cy="178"
     inkscape:window-width="3840"
     inkscape:window-height="2050"
     inkscape:window-x="-12"
     inkscape:window-y="-12"
     inkscape:window-maximized="1"
     inkscape:current-layer="layer1"
     inkscape:snap-page="true" />
  <defs
     id="defs2">
    <rect
       x="121.18841"
       y="325.31213"
       width="111.54477"
       height="62.362206"
       id="rect23458" />
    <rect
       x="183.22916"
       y="437.17834"
       width="124.40295"
       height="73.613121"
       id="rect20262" />
    <rect
       x="228.87572"
       y="14.144005"
       width="1134.092"
       height="1460.6899"
       id="rect1442" />
  </defs>
  <g
     inkscape:label="Layer 1"
     inkscape:groupmode="layer"
     id="layer1">
    <text
       xml:space="preserve"
       transform="scale(0.26458333)"
       id="text1440"
       style="font-style:normal;font-weight:normal;font-size:40px;line-height:1.25;font-family:sans-serif;white-space:pre;shape-inside:url(#rect1442);fill:#000000;fill-opacity:1;stroke:none" />
    <path
       id="path25100"
       style="stroke-width:0.199375"
       d="m 6.3800006,-320.98484 a 6.3800514,6.3800514 0 0 0 -6.379967610959,6.38053 v 76.56019 A 6.3800514,6.3800514 0 0 0 6.3800006,-231.66415 H 66.535678 c 5.701987,12.43045 18.254026,21.06143 32.82872,21.06143 19.942742,0 36.100372,-16.15819 36.100372,-36.10091 0,-19.94275 -16.15763,-36.10092 -36.100372,-36.10092 -3.48575,0 -6.8553,0.49545 -10.04373,1.41665 v -33.21641 a 6.3800514,6.3800514 0 0 0 -6.379978,-6.38053 z m 6.3799674,12.76048 h 25.520383 v 25.51989 H 12.759968 Z m 38.280319,0 h 25.520434 v 25.51989 H 51.040287 Z m 50.323733,31.73488 v 50.09935 c 0,2.2061 0.61597,3.77089 1.84728,4.69437 1.23131,0.82088 3.28308,1.23134 6.15614,1.23134 v 1.53877 H 89.128183 v -1.53877 c 2.719142,-0.1026 4.591644,-0.51307 5.617742,-1.23134 1.539136,-1.0774 2.30868,-3.12972 2.30868,-6.15668 v -38.17093 c 0,-2.92438 -1.052118,-4.38643 -3.155605,-4.38643 -1.333925,0 -3.180737,0.46185 -5.540748,1.38534 v -1.23134 z m -88.604052,6.5455 h 25.520383 v 25.51988 H 12.759968 Z m 38.280319,0 h 20.697918 c -5.287484,6.27932 -8.474721,14.3859 -8.474721,23.24035 0,0.76589 0.0267,1.52552 0.07364,2.27953 H 51.040243 Z" />
    <path
       d="m -484.51318,35.398543 c -18.73933,0 -33.92229,15.182963 -33.92229,33.922299 0,18.73932 15.18296,33.922278 33.92229,33.922278 18.73934,0 33.9223,-15.182948 33.9223,-33.922278 0,-18.739336 -15.18296,-33.922299 -33.9223,-33.922299 z"
       id="path36120"
       style="stroke-width:0.136783" />
    <path
       d="m -293.17159,29.736676 h -71.94071 a 5.9950584,5.9950584 0 0 0 -5.99505,5.99506 v 71.940704 a 5.9950584,5.9950584 0 0 0 5.99505,5.99505 h 71.94071 a 5.9950584,5.9950584 0 0 0 5.99505,-5.99505 V 35.731736 a 5.9950584,5.9950584 0 0 0 -5.99505,-5.99506 z m -5.99507,11.99012 v 23.980232 h -23.98023 V 41.726796 Z m -35.97035,0 v 23.980232 h -23.98023 V 41.726796 Z m -23.98023,59.950584 V 77.697148 h 23.98023 v 23.980232 z m 35.97035,0 V 77.697148 h 23.98023 v 23.980232 z"
       id="path36295"
       style="stroke-width:0.187345" />
    <path
       id="path36298"
       style="stroke-width:0.187345"
       d="m -217.78426,22.222678 a 5.9950585,5.9950585 0 0 0 -5.99498,5.9955 v 71.940312 a 5.9950585,5.9950585 0 0 0 5.99498,5.99498 h 56.52575 c 5.3579,11.68036 17.15251,19.79052 30.84773,19.79052 18.73933,0 33.92196,-15.18315 33.92196,-33.922473 0,-18.73934 -15.18263,-33.922485 -33.92196,-33.922485 -3.27542,0 -6.44164,0.46556 -9.43767,1.331185 V 28.218178 a 5.9950585,5.9950585 0 0 0 -5.99498,-5.9955 z m 5.99498,11.99048 h 23.98045 v 23.979925 h -23.98045 z m 35.97041,0 h 23.98046 v 23.979925 h -23.98046 z m -35.97041,35.970409 h 23.98045 v 23.97993 h -23.98045 z m 35.97041,0 h 19.44895 c -4.96843,5.9004 -7.96334,13.51781 -7.96334,21.83795 0,0.71967 0.0251,1.43346 0.0693,2.14198 h -11.55486 z" />
    <path
       id="path36337"
       style="stroke-width:0.199375"
       d="m 6.3796928,-154.2213 a 6.3800514,6.3800514 0 0 0 -6.37941588051,6.38052 v 76.560215 A 6.3800514,6.3800514 0 0 0 6.3796928,-64.900599 H 66.535435 c 5.701986,12.430454 18.254015,21.061446 32.828722,21.061446 19.942743,0 36.100363,-16.158198 36.100363,-36.100926 0,-19.942755 -16.15762,-36.100921 -36.100363,-36.100921 -3.485759,0 -6.855303,0.49548 -10.043733,1.41668 v -33.21646 a 6.3800514,6.3800514 0 0 0 -6.379979,-6.38052 z m 6.3799782,12.7605 h 25.520436 v 25.51989 H 12.759671 Z m 38.280371,0 h 25.520435 v 25.51989 H 51.040042 Z m 48.765725,31.75193 c 3.623263,0 6.710673,1.32633 9.262253,3.97999 2.75573,2.95984 4.13344,6.685266 4.13344,11.176076 0,7.297565 -2.67919,14.187178 -8.03753,20.668224 l -14.314097,17.452669 h 17.146327 c 1.68406,0 2.98554,-0.484463 3.90411,-1.454073 0.86753,-0.765471 2.0414,-2.60278 3.52133,-5.511598 h 1.53106 l -3.98054,11.176081 H 84.189933 v -0.382767 l 13.31925,-16.228467 c 7.042387,-8.624394 10.767827,-16.20231 11.176077,-22.734386 0.20412,-3.215013 -0.63775,-6.200763 -2.52592,-8.956499 -2.2454,-3.41912 -5.46041,-5.12827 -9.64502,-5.12827 -2.959851,0 -5.358407,1.50531 -7.195555,4.51619 -0.612384,1.02065 -1.735421,3.725216 -3.368444,8.113963 l -1.530506,-0.229329 c 1.020639,-5.817638 3.087191,-10.130264 6.200137,-12.937024 2.60262,-2.34747 5.664608,-3.52078 9.185815,-3.52078 z m -87.046096,6.52845 h 25.520436 v 25.519888 H 12.759671 Z m 38.280371,0 h 20.69792 c -5.287484,6.279316 -8.474733,14.385896 -8.474733,23.240341 0,0.765887 0.0267,1.525526 0.07375,2.279547 H 51.040095 Z" />
    <path
       id="path36346"
       style="stroke-width:0.199375"
       d="M 6.3799695,12.542277 A 6.3800514,6.3800514 0 0 0 1.7342983e-8,18.922799 V 95.482995 A 6.3800514,6.3800514 0 0 0 6.3799695,101.86297 H 66.53571 c 5.701981,12.43044 18.254017,21.06142 32.828718,21.06142 19.942742,0 36.100372,-16.15819 36.100372,-36.100905 0,-19.942751 -16.15763,-36.100923 -36.100372,-36.100923 -3.48576,0 -6.855303,0.495462 -10.043736,1.416671 V 18.922799 A 6.3800514,6.3800514 0 0 0 82.940721,12.542277 Z M 12.759942,25.302769 H 38.280374 V 50.822651 H 12.759942 Z m 38.280374,0 H 76.560748 V 50.822651 H 51.040316 Z m 49.169944,31.699124 c 4.065,0 7.1014,1.404986 9.10882,4.215365 1.40519,2.007415 2.10795,4.240959 2.10795,6.700042 0,4.76761 -2.30846,8.882491 -6.92552,12.345278 3.01113,1.7063 5.04341,3.161605 6.09731,4.366054 2.30851,2.609634 3.46304,6.273332 3.46304,10.99075 0,5.721128 -1.93222,10.312898 -5.7965,13.775698 -3.86426,3.51297 -8.732225,5.26962 -14.603914,5.26962 -1.656117,0 -3.212051,-0.25104 -4.667426,-0.75289 -2.107784,-0.75277 -3.161662,-1.73119 -3.161662,-2.93563 0,-1.70629 0.702767,-2.55947 2.107956,-2.55947 0.200743,0 0.376299,0.0252 0.526853,0.0754 2.760193,1.20445 4.215497,1.83174 4.366056,1.88193 2.208155,0.80297 4.240433,1.12892 6.097301,0.97836 3.061306,-0.20075 5.746596,-1.5051 8.055116,-3.91399 2.25835,-2.3587 3.38714,-5.19439 3.38714,-8.506619 0,-5.721131 -1.78126,-9.635844 -5.34441,-11.743637 -3.51299,-2.057594 -7.276749,-2.985682 -11.291582,-2.784947 v -0.226031 c 3.864275,-1.355006 7.075672,-3.211724 9.635132,-5.570443 2.91075,-2.659821 4.36661,-5.394873 4.36661,-8.205252 0,-2.459083 -0.92864,-4.817868 -2.7855,-7.076208 -2.0576,-2.459081 -4.4667,-3.688515 -7.226904,-3.688515 -3.111486,0 -6.498996,3.512743 -10.162527,10.538693 l -1.355077,-0.300824 c 2.308527,-8.581712 6.975781,-12.872698 14.001738,-12.872698 z m -87.450318,6.581249 h 25.520432 v 25.51989 H 12.759942 Z m 38.280374,0 h 20.697921 c -5.287492,6.279316 -8.474732,14.385896 -8.474732,23.240343 0,0.765885 0.02674,1.525527 0.0737,2.279547 H 51.040316 Z" />
  </g>
</svg>
